<?xml version="1.0" encoding="utf-8"?>
<svg version="1.1" xmlns:xlink="http://www.w3.org/1999/xlink" width="23px" height="34px" xmlns="http://www.w3.org/2000/svg">
  <g transform="matrix(1 0 0 1 -350 -50 )">
    <path d="M 10.3726100817735 17  L 22.0910101346439 28.0866262688376  C 22.387758586548 28.5142383458401  22.5361328125 29.0086834192571  22.5361328125 29.5699614890886  C 22.5361328125 30.3555840821566  22.2454427083333 31.01026957638  21.6640625 31.5340179717587  L 19.94287109375 33.1925545571245  C 19.3767903645833 33.7308515190415  18.6883138020833 34  17.87744140625 34  C 17.0818684895833 34  16.3857421875 33.7308515190415  15.7890625 33.1925545571245  L 0.849121093750001 18.9640564826701  C 0.283040364583337 18.4257595207531  0 17.7710740265297  0 17  C 0 16.2434745400086  0.283040364583337 15.581514762516  0.849121093750001 15.0141206675225  L 15.7890625 0.829268292682926  C 16.3704427083333 0.276422764227642  17.0665690104167 0  17.87744140625 0  C 18.6730143229167 0  19.3614908854167 0.276422764227642  19.94287109375 0.829268292682926  L 21.6640625 2.44415917843389  C 22.2454427083333 2.99700470688917  22.5361328125 3.65896448438168  22.5361328125 4.43003851091143  C 22.5361328125 4.97835369003954  22.3891391413591 5.47149291439706  22.0951513707152 5.90945658924471  L 10.3726100817735 17  Z " fill-rule="nonzero" fill="#24227b" stroke="none" transform="matrix(1 0 0 1 350 50 )" />
  </g>
</svg>