<svg xmlns:xlink="http://www.w3.org/1999/xlink" xmlns="http://www.w3.org/2000/svg" version="1.1" width="23px" height="24px">
  <g transform="matrix(1 0 0 1 -40 -161 )">
    <path d="M 1.76923076923077 18.4285714285714  L 1.76923076923077 22.2857142857143  L 5.75 22.2857142857143  L 5.75 18.4285714285714  L 1.76923076923077 18.4285714285714  Z M 6.63461538461538 18.4285714285714  L 6.63461538461538 22.2857142857143  L 11.0576923076923 22.2857142857143  L 11.0576923076923 18.4285714285714  L 6.63461538461538 18.4285714285714  Z M 1.76923076923077 13.2857142857143  L 1.76923076923077 17.5714285714286  L 5.75 17.5714285714286  L 5.75 13.2857142857143  L 1.76923076923077 13.2857142857143  Z M 6.63461538461538 13.2857142857143  L 6.63461538461538 17.5714285714286  L 11.0576923076923 17.5714285714286  L 11.0576923076923 13.2857142857143  L 6.63461538461538 13.2857142857143  Z M 1.76923076923077 8.57142857142857  L 1.76923076923077 12.4285714285714  L 5.75 12.4285714285714  L 5.75 8.57142857142857  L 1.76923076923077 8.57142857142857  Z M 11.9423076923077 18.4285714285714  L 11.9423076923077 22.2857142857143  L 16.3653846153846 22.2857142857143  L 16.3653846153846 18.4285714285714  L 11.9423076923077 18.4285714285714  Z M 6.63461538461538 8.57142857142857  L 6.63461538461538 12.4285714285714  L 11.0576923076923 12.4285714285714  L 11.0576923076923 8.57142857142857  L 6.63461538461538 8.57142857142857  Z M 17.25 18.4285714285714  L 17.25 22.2857142857143  L 21.2307692307692 22.2857142857143  L 21.2307692307692 18.4285714285714  L 17.25 18.4285714285714  Z M 11.9423076923077 13.2857142857143  L 11.9423076923077 17.5714285714286  L 16.3653846153846 17.5714285714286  L 16.3653846153846 13.2857142857143  L 11.9423076923077 13.2857142857143  Z M 6.94561298076923 6.30133928571429  C 7.03315304487179 6.21651785714286  7.07692307692308 6.11607142857143  7.07692307692308 6  L 7.07692307692308 2.14285714285714  C 7.07692307692308 2.02678571428571  7.03315304487179 1.92633928571428  6.94561298076923 1.84151785714286  C 6.85807291666667 1.75669642857143  6.75440705128205 1.71428571428571  6.63461538461538 1.71428571428571  L 5.75 1.71428571428571  C 5.63020833333333 1.71428571428571  5.52654246794872 1.75669642857143  5.43900240384615 1.84151785714286  C 5.35146233974359 1.92633928571428  5.30769230769231 2.02678571428571  5.30769230769231 2.14285714285714  L 5.30769230769231 6  C 5.30769230769231 6.11607142857143  5.35146233974359 6.21651785714286  5.43900240384615 6.30133928571429  C 5.52654246794872 6.38616071428571  5.63020833333333 6.42857142857143  5.75 6.42857142857143  L 6.63461538461538 6.42857142857143  C 6.75440705128205 6.42857142857143  6.85807291666667 6.38616071428571  6.94561298076923 6.30133928571429  Z M 17.25 13.2857142857143  L 17.25 17.5714285714286  L 21.2307692307692 17.5714285714286  L 21.2307692307692 13.2857142857143  L 17.25 13.2857142857143  Z M 11.9423076923077 8.57142857142857  L 11.9423076923077 12.4285714285714  L 16.3653846153846 12.4285714285714  L 16.3653846153846 8.57142857142857  L 11.9423076923077 8.57142857142857  Z M 17.25 8.57142857142857  L 17.25 12.4285714285714  L 21.2307692307692 12.4285714285714  L 21.2307692307692 8.57142857142857  L 17.25 8.57142857142857  Z M 17.5609975961538 6.30133928571429  C 17.6485376602564 6.21651785714286  17.6923076923077 6.11607142857143  17.6923076923077 6  L 17.6923076923077 2.14285714285714  C 17.6923076923077 2.02678571428571  17.6485376602564 1.92633928571428  17.5609975961538 1.84151785714286  C 17.4734575320513 1.75669642857143  17.3697916666667 1.71428571428571  17.25 1.71428571428571  L 16.3653846153846 1.71428571428571  C 16.245592948718 1.71428571428571  16.1419270833333 1.75669642857143  16.0543870192308 1.84151785714286  C 15.9668469551282 1.92633928571428  15.9230769230769 2.02678571428571  15.9230769230769 2.14285714285714  L 15.9230769230769 6  C 15.9230769230769 6.11607142857143  15.9668469551282 6.21651785714286  16.0543870192308 6.30133928571429  C 16.1419270833333 6.38616071428571  16.245592948718 6.42857142857143  16.3653846153846 6.42857142857143  L 17.25 6.42857142857143  C 17.3697916666667 6.42857142857143  17.4734575320513 6.38616071428571  17.5609975961538 6.30133928571429  Z M 22.4747596153846 3.9375  C 22.8249198717949 4.27678571428571  23 4.67857142857143  23 5.14285714285714  L 23 22.2857142857143  C 23 22.75  22.8249198717949 23.1517857142857  22.4747596153846 23.4910714285714  C 22.1245993589744 23.8303571428571  21.7099358974359 24  21.2307692307692 24  L 1.76923076923077 24  C 1.2900641025641 24  0.875400641025641 23.8303571428571  0.525240384615385 23.4910714285714  C 0.175080128205128 23.1517857142857  0 22.75  0 22.2857142857143  L 0 5.14285714285714  C 0 4.67857142857143  0.175080128205128 4.27678571428571  0.525240384615385 3.9375  C 0.875400641025641 3.59821428571428  1.2900641025641 3.42857142857143  1.76923076923077 3.42857142857143  L 3.53846153846154 3.42857142857143  L 3.53846153846154 2.14285714285714  C 3.53846153846154 1.55357142857143  3.75500801282051 1.04910714285714  4.18810096153846 0.629464285714286  C 4.62119391025641 0.209821428571429  5.14182692307692 0  5.75 0  L 6.63461538461538 0  C 7.24278846153846 0  7.76342147435898 0.209821428571429  8.19651442307692 0.629464285714286  C 8.62960737179487 1.04910714285714  8.84615384615385 1.55357142857143  8.84615384615385 2.14285714285714  L 8.84615384615385 3.42857142857143  L 14.1538461538462 3.42857142857143  L 14.1538461538462 2.14285714285714  C 14.1538461538462 1.55357142857143  14.3703926282051 1.04910714285714  14.8034855769231 0.629464285714286  C 15.236578525641 0.209821428571429  15.7572115384615 0  16.3653846153846 0  L 17.25 0  C 17.8581730769231 0  18.3788060897436 0.209821428571429  18.8118990384615 0.629464285714286  C 19.2449919871795 1.04910714285714  19.4615384615385 1.55357142857143  19.4615384615385 2.14285714285714  L 19.4615384615385 3.42857142857143  L 21.2307692307692 3.42857142857143  C 21.7099358974359 3.42857142857143  22.1245993589744 3.59821428571428  22.4747596153846 3.9375  Z " fill-rule="nonzero" fill="#8583f4" stroke="none" transform="matrix(1 0 0 1 40 161 )"/>
  </g>
</svg>