<svg xmlns:xlink="http://www.w3.org/1999/xlink" xmlns="http://www.w3.org/2000/svg" version="1.1" width="25px" height="24px">
  <g transform="matrix(1 0 0 1 -40 -215 )">
    <path d="M 6.66666666666667 8.57142857142857  C 6.66666666666667 9.8125  7.01822916666667 10.9553571428571  7.72135416666667 12  C 6.31510416666667 12.0446428571429  5.16493055555556 12.6160714285714  4.27083333333333 13.7142857142857  L 2.52604166666667 13.7142857142857  C 1.81423611111111 13.7142857142857  1.21527777777778 13.5334821428571  0.729166666666667 13.171875  C 0.243055555555556 12.8102678571429  0 12.28125  0 11.5848214285714  C 0 8.43303571428571  0.538194444444444 6.85714285714286  1.61458333333333 6.85714285714286  C 1.66666666666667 6.85714285714286  1.85546875 6.95089285714286  2.18098958333333 7.13839285714286  C 2.50651041666667 7.32589285714286  2.9296875 7.515625  3.45052083333333 7.70758928571429  C 3.97135416666667 7.89955357142857  4.48784722222222 7.99553571428571  5 7.99553571428571  C 5.58159722222222 7.99553571428571  6.15885416666667 7.89285714285714  6.73177083333333 7.6875  C 6.68836805555556 8.01785714285714  6.66666666666667 8.3125  6.66666666666667 8.57142857142857  Z M 21.62109375 19.1450892857143  C 21.6514756944444 19.5959821428571  21.6666666666667 20.0580357142857  21.6666666666667 20.53125  C 21.6666666666667 21.6026785714286  21.3498263888889 22.4486607142857  20.7161458333333 23.0691964285714  C 20.0824652777778 23.6897321428571  19.2404513888889 24  18.1901041666667 24  L 6.80989583333333 24  C 5.75954861111111 24  4.91753472222222 23.6897321428571  4.28385416666667 23.0691964285714  C 3.65017361111111 22.4486607142857  3.33333333333333 21.6026785714286  3.33333333333333 20.53125  C 3.33333333333333 20.0580357142857  3.34852430555556 19.5959821428571  3.37890625 19.1450892857143  C 3.40928819444445 18.6941964285714  3.47005208333333 18.2075892857143  3.56119791666667 17.6852678571429  C 3.65234375 17.1629464285714  3.76736111111111 16.6785714285714  3.90625 16.2321428571429  C 4.04513888888889 15.7857142857143  4.23177083333333 15.3504464285714  4.46614583333333 14.9263392857143  C 4.70052083333333 14.5022321428571  4.96961805555556 14.140625  5.2734375 13.8415178571429  C 5.57725694444444 13.5424107142857  5.94835069444445 13.3035714285714  6.38671875 13.125  C 6.82508680555556 12.9464285714286  7.30902777777778 12.8571428571429  7.83854166666667 12.8571428571429  C 7.92534722222222 12.8571428571429  8.11197916666667 12.953125  8.3984375 13.1450892857143  C 8.68489583333333 13.3370535714286  9.00173611111111 13.5513392857143  9.34895833333333 13.7879464285714  C 9.69618055555556 14.0245535714286  10.1605902777778 14.2388392857143  10.7421875 14.4308035714286  C 11.3237847222222 14.6227678571429  11.9097222222222 14.71875  12.5 14.71875  C 13.0902777777778 14.71875  13.6762152777778 14.6227678571429  14.2578125 14.4308035714286  C 14.8394097222222 14.2388392857143  15.3038194444444 14.0245535714286  15.6510416666667 13.7879464285714  C 15.9982638888889 13.5513392857143  16.3151041666667 13.3370535714286  16.6015625 13.1450892857143  C 16.8880208333333 12.953125  17.0746527777778 12.8571428571429  17.1614583333333 12.8571428571429  C 17.6909722222222 12.8571428571429  18.1749131944444 12.9464285714286  18.61328125 13.125  C 19.0516493055556 13.3035714285714  19.4227430555556 13.5424107142857  19.7265625 13.8415178571429  C 20.0303819444444 14.140625  20.2994791666667 14.5022321428571  20.5338541666667 14.9263392857143  C 20.7682291666667 15.3504464285714  20.9548611111111 15.7857142857143  21.09375 16.2321428571429  C 21.2326388888889 16.6785714285714  21.34765625 17.1629464285714  21.4388020833333 17.6852678571429  C 21.5299479166667 18.2075892857143  21.5907118055556 18.6941964285714  21.62109375 19.1450892857143  Z M 7.35677083333333 1.00446428571429  C 8.0078125 1.67410714285714  8.33333333333333 2.48214285714286  8.33333333333333 3.42857142857143  C 8.33333333333333 4.375  8.0078125 5.18303571428571  7.35677083333333 5.85267857142857  C 6.70572916666667 6.52232142857143  5.92013888888889 6.85714285714286  5 6.85714285714286  C 4.07986111111111 6.85714285714286  3.29427083333333 6.52232142857143  2.64322916666667 5.85267857142857  C 1.9921875 5.18303571428571  1.66666666666667 4.375  1.66666666666667 3.42857142857143  C 1.66666666666667 2.48214285714286  1.9921875 1.67410714285714  2.64322916666667 1.00446428571429  C 3.29427083333333 0.33482142857143  4.07986111111111 0  5 0  C 5.92013888888889 0  6.70572916666667 0.33482142857143  7.35677083333333 1.00446428571429  Z M 16.03515625 4.93526785714286  C 17.01171875 5.93973214285714  17.5 7.15178571428571  17.5 8.57142857142857  C 17.5 9.99107142857143  17.01171875 11.203125  16.03515625 12.2075892857143  C 15.05859375 13.2120535714286  13.8802083333333 13.7142857142857  12.5 13.7142857142857  C 11.1197916666667 13.7142857142857  9.94140625 13.2120535714286  8.96484375 12.2075892857143  C 7.98828125 11.203125  7.5 9.99107142857143  7.5 8.57142857142857  C 7.5 7.15178571428571  7.98828125 5.93973214285714  8.96484375 4.93526785714286  C 9.94140625 3.93080357142857  11.1197916666667 3.42857142857143  12.5 3.42857142857143  C 13.8802083333333 3.42857142857143  15.05859375 3.93080357142857  16.03515625 4.93526785714286  Z M 23.3854166666667 6.85714285714286  C 24.4618055555556 6.85714285714286  25 8.43303571428571  25 11.5848214285714  C 25 12.28125  24.7569444444444 12.8102678571429  24.2708333333333 13.171875  C 23.7847222222222 13.5334821428571  23.1857638888889 13.7142857142857  22.4739583333333 13.7142857142857  L 20.7291666666667 13.7142857142857  C 19.8350694444444 12.6160714285714  18.6848958333333 12.0446428571429  17.2786458333333 12  C 17.9817708333333 10.9553571428571  18.3333333333333 9.8125  18.3333333333333 8.57142857142857  C 18.3333333333333 8.3125  18.3116319444444 8.01785714285714  18.2682291666667 7.6875  C 18.8411458333333 7.89285714285714  19.4184027777778 7.99553571428571  20 7.99553571428571  C 20.5121527777778 7.99553571428571  21.0286458333333 7.89955357142857  21.5494791666667 7.70758928571429  C 22.0703125 7.515625  22.4934895833333 7.32589285714286  22.8190104166667 7.13839285714286  C 23.14453125 6.95089285714286  23.3333333333333 6.85714285714286  23.3854166666667 6.85714285714286  Z M 22.3567708333333 1.00446428571429  C 23.0078125 1.67410714285714  23.3333333333333 2.48214285714286  23.3333333333333 3.42857142857143  C 23.3333333333333 4.375  23.0078125 5.18303571428571  22.3567708333333 5.85267857142857  C 21.7057291666667 6.52232142857143  20.9201388888889 6.85714285714286  20 6.85714285714286  C 19.0798611111111 6.85714285714286  18.2942708333333 6.52232142857143  17.6432291666667 5.85267857142857  C 16.9921875 5.18303571428571  16.6666666666667 4.375  16.6666666666667 3.42857142857143  C 16.6666666666667 2.48214285714286  16.9921875 1.67410714285714  17.6432291666667 1.00446428571429  C 18.2942708333333 0.33482142857143  19.0798611111111 0  20 0  C 20.9201388888889 0  21.7057291666667 0.33482142857143  22.3567708333333 1.00446428571429  Z " fill-rule="nonzero" fill="#8583f4" stroke="none" transform="matrix(1 0 0 1 40 215 )"/>
  </g>
</svg>